<svg xmlns="http://www.w3.org/2000/svg" width="96" height="96" version="1.1"><path fill="#6965E3" d="M0 0 C8.82462618 7.53770153 14.41783704 15.7128582 17.4375 26.9921875 C17.4375 28.3121875 17.4375 29.6321875 17.4375 30.9921875 C15.5625 31.6171875 15.5625 31.6171875 13.4375 31.9921875 C9.95917425 28.51386175 9.03680761 23.57686932 7.4375 18.9921875 C0.5075 18.4971875 0.5075 18.4971875 -6.5625 17.9921875 C-6.211875 19.2090625 -5.86125 20.4259375 -5.5 21.6796875 C-4.62793648 25.11305646 -4.48546831 27.54568609 -5.5625 30.9921875 C-6.8825 30.9921875 -8.2025 30.9921875 -9.5625 30.9921875 C-10.73915969 26.99154454 -11.74329905 23.08819226 -12.5625 18.9921875 C-19.4925 18.4971875 -19.4925 18.4971875 -26.5625 17.9921875 C-26.5625 21.9521875 -26.5625 25.9121875 -26.5625 29.9921875 C-27.8825 30.6521875 -29.2025 31.3121875 -30.5625 31.9921875 C-32.5625 29.9921875 -32.5625 29.9921875 -32.7578125 27.171875 C-32.69270833 24.11197917 -32.62760417 21.05208333 -32.5625 17.9921875 C-37.1825 18.3221875 -41.8025 18.6521875 -46.5625 18.9921875 C-47.5525 24.2721875 -48.5425 29.5521875 -49.5625 34.9921875 C-45.6025 34.9921875 -41.6425 34.9921875 -37.5625 34.9921875 C-36.9025 36.3121875 -36.2425 37.6321875 -35.5625 38.9921875 C-37.5625 40.9921875 -37.5625 40.9921875 -40.3828125 41.1875 C-43.44270833 41.12239583 -46.50260417 41.05729167 -49.5625 40.9921875 C-48.0775 48.9121875 -48.0775 48.9121875 -46.5625 56.9921875 C-43.2625 57.3221875 -39.9625 57.6521875 -36.5625 57.9921875 C-36.2325 59.3121875 -35.9025 60.6321875 -35.5625 61.9921875 C-36.5625 62.9921875 -36.5625 62.9921875 -38.41015625 63.08984375 C-40.4609375 63.05729167 -42.51171875 63.02473958 -44.5625 62.9921875 C-41.43074592 69.74224984 -41.43074592 69.74224984 -37.1875 75.8046875 C-35.5625 77.9921875 -35.5625 77.9921875 -35.75 80.7421875 C-36.5625 82.9921875 -36.5625 82.9921875 -37.5625 83.9921875 C-44.83897415 85.12408348 -50.48948776 81.74134301 -56.5625 77.9921875 C-67.70769241 69.82326806 -74.1351724 59.36349635 -77.25 46.0546875 C-78.61083702 32.71848472 -76.33348898 20.13965423 -68.5625 8.9921875 C-60.23119862 -1.11071244 -49.8457626 -7.18431449 -37.0625 -9.6953125 C-23.38317895 -10.91668045 -10.97835408 -8.60194207 0 0 Z M-39.5625 0.9921875 C-43.34089383 6.56838436 -43.34089383 6.56838436 -44.5625 12.9921875 C-40.6025 12.9921875 -36.6425 12.9921875 -32.5625 12.9921875 C-32.5625 7.7121875 -32.5625 2.4321875 -32.5625 -3.0078125 C-35.89496928 -3.0078125 -37.18680602 -1.27300908 -39.5625 0.9921875 Z M-26.5625 -3.0078125 C-26.5625 2.2721875 -26.5625 7.5521875 -26.5625 12.9921875 C-22.6025 12.9921875 -18.6425 12.9921875 -14.5625 12.9921875 C-15.43073344 8.65102032 -15.99933722 6.81616398 -18.3125 3.3046875 C-18.80234375 2.53769531 -19.2921875 1.77070313 -19.796875 0.98046875 C-21.74697544 -1.51433102 -21.74697544 -1.51433102 -26.5625 -3.0078125 Z M-60.1875 8.2421875 C-62.78037329 10.63886009 -62.78037329 10.63886009 -62.5625 12.9921875 C-58.9325 12.9921875 -55.3025 12.9921875 -51.5625 12.9921875 C-49.2525 8.3721875 -46.9425 3.7521875 -44.5625 -1.0078125 C-50.08396043 -1.0078125 -56.37057221 4.53483659 -60.1875 8.2421875 Z M-14.5625 -1.0078125 C-12.2525 3.6121875 -9.9425 8.2321875 -7.5625 12.9921875 C-3.9325 12.9921875 -0.3025 12.9921875 3.4375 12.9921875 C0.10805759 6.33330267 -5.65843024 1.78669193 -12.5625 -1.0078125 C-13.2225 -1.0078125 -13.8825 -1.0078125 -14.5625 -1.0078125 Z M-66.5625 17.9921875 C-69.87789081 23.87433249 -71.14128919 28.25281446 -71.5625 34.9921875 C-65.9525 34.9921875 -60.3425 34.9921875 -54.5625 34.9921875 C-53.9025 29.3821875 -53.2425 23.7721875 -52.5625 17.9921875 C-57.1825 17.9921875 -61.8025 17.9921875 -66.5625 17.9921875 Z M-71.5625 40.9921875 C-71.14128919 47.73156054 -69.87789081 52.11004251 -66.5625 57.9921875 C-61.9425 57.9921875 -57.3225 57.9921875 -52.5625 57.9921875 C-53.2225 52.3821875 -53.8825 46.7721875 -54.5625 40.9921875 C-60.1725 40.9921875 -65.7825 40.9921875 -71.5625 40.9921875 Z M-62.5625 62.9921875 C-59.28147957 69.55422836 -53.45443128 74.36668987 -46.5625 76.9921875 C-45.9025 76.6621875 -45.2425 76.3321875 -44.5625 75.9921875 C-46.8725 71.7021875 -49.1825 67.4121875 -51.5625 62.9921875 C-55.1925 62.9921875 -58.8225 62.9921875 -62.5625 62.9921875 Z" transform="translate(77.5625,10.0078125)"/><path fill="#3E3EF3" d="M0 0 C1.40892517 -0.00574036 1.40892517 -0.00574036 2.84631348 -0.01159668 C4.83000766 -0.01431576 6.8137377 -0.00695484 8.79736328 0.00976562 C11.83317016 0.03117539 14.86661046 0.00996393 17.90234375 -0.015625 C19.83073439 -0.01298172 21.75912356 -0.00785675 23.6875 0 C24.59487915 -0.00809692 25.5022583 -0.01619385 26.43713379 -0.02453613 C30.13876236 0.03052302 32.64719652 0.14380536 35.9140625 1.9609375 C38.12979293 5.94440915 37.91504342 9.70004725 37.875 14.1875 C37.8788269 15.12678345 37.88265381 16.06606689 37.88659668 17.03381348 C37.88931576 19.01750766 37.88195484 21.0012377 37.86523438 22.98486328 C37.84382461 26.02067016 37.86503607 29.05411046 37.890625 32.08984375 C37.88798172 34.01823439 37.88285675 35.94662356 37.875 37.875 C37.88309692 38.78237915 37.89119385 39.6897583 37.89953613 40.62463379 C37.84447698 44.32626236 37.73119464 46.83469652 35.9140625 50.1015625 C31.93059085 52.31729293 28.17495275 52.10254342 23.6875 52.0625 C22.74821655 52.0663269 21.80893311 52.07015381 20.84118652 52.07409668 C18.85749234 52.07681576 16.8737623 52.06945484 14.89013672 52.05273438 C11.85432984 52.03132461 8.82088954 52.05253607 5.78515625 52.078125 C3.85676561 52.07548172 1.92837644 52.07035675 0 52.0625 C-1.36106873 52.07464539 -1.36106873 52.07464539 -2.74963379 52.08703613 C-6.45126236 52.03197698 -8.95969652 51.91869464 -12.2265625 50.1015625 C-14.44229293 46.11809085 -14.22754342 42.36245275 -14.1875 37.875 C-14.1913269 36.93571655 -14.19515381 35.99643311 -14.19909668 35.02868652 C-14.20181576 33.04499234 -14.19445484 31.0612623 -14.17773438 29.07763672 C-14.15632461 26.04182984 -14.17753607 23.00838954 -14.203125 19.97265625 C-14.20048172 18.04426561 -14.19535675 16.11587644 -14.1875 14.1875 C-14.19559692 13.28012085 -14.20369385 12.3727417 -14.21203613 11.43786621 C-14.15697698 7.73623764 -14.04369464 5.22780348 -12.2265625 1.9609375 C-8.24309085 -0.25479293 -4.48745275 -0.04004342 0 0 Z M22.34375 12.53125 C21.95574219 13.03269531 21.56773438 13.53414062 21.16796875 14.05078125 C18.17876575 16.47670831 14.77998802 15.57637655 11.15625 15.21875 C10.40666016 15.15751953 9.65707031 15.09628906 8.88476562 15.03320312 C7.03652255 14.88016389 5.1899165 14.70758121 3.34375 14.53125 C3.34375 15.52125 3.34375 16.51125 3.34375 17.53125 C7.79875 19.51125 7.79875 19.51125 12.34375 21.53125 C8.01400228 27.37640942 5.54937329 29.41313604 -1.65625 30.53125 C-1.65625 31.52125 -1.65625 32.51125 -1.65625 33.53125 C1.80875 33.03625 1.80875 33.03625 5.34375 32.53125 C5.01375 34.84125 4.68375 37.15125 4.34375 39.53125 C5.33375 39.53125 6.32375 39.53125 7.34375 39.53125 C7.49070312 38.93957031 7.63765625 38.34789063 7.7890625 37.73828125 C9.47571493 31.79622414 11.25161002 29.03916865 16.34375 25.53125 C17.66375 28.50125 18.98375 31.47125 20.34375 34.53125 C21.33375 34.53125 22.32375 34.53125 23.34375 34.53125 C23.23675781 33.41105469 23.12976563 32.29085937 23.01953125 31.13671875 C22.8975973 29.66413183 22.77654968 28.19147133 22.65625 26.71875 C22.58341797 25.98076172 22.51058594 25.24277344 22.43554688 24.48242188 C22.0094506 18.94317036 22.0094506 18.94317036 23.82421875 16.70703125 C24.32566406 16.31902344 24.82710937 15.93101563 25.34375 15.53125 C25.34375 14.54125 25.34375 13.55125 25.34375 12.53125 C24.35375 12.53125 23.36375 12.53125 22.34375 12.53125 Z" transform="translate(58.65625,44.46875)"/></svg>